<?xml version="1.0" standalone="no"?>
<!DOCTYPE svg PUBLIC "-//W3C//DTD SVG 20010904//EN"
 "http://www.w3.org/TR/2001/REC-SVG-20010904/DTD/svg10.dtd">
<svg version="1.0" xmlns="http://www.w3.org/2000/svg"
 width="368.000000pt" height="114.000000pt" viewBox="0 0 368.000000 114.000000"
 preserveAspectRatio="xMidYMid meet">
<metadata>
Created by potrace 1.16, written by Peter Selinger 2001-2019
</metadata>
<g transform="translate(0.000000,114.000000) scale(0.100000,-0.100000)"
fill="#000000" stroke="none">
<path d="M120 740 l0 -300 150 0 150 0 0 150 0 150 150 0 150 0 0 150 0 150
-300 0 -300 0 0 -300z"/>
<path d="M2050 775 c0 -69 -3 -73 -34 -50 -51 39 -144 3 -176 -68 -32 -70 -21
-136 33 -185 46 -43 135 -46 164 -5 12 15 13 15 13 -5 0 -19 6 -22 40 -22 l40
0 0 200 0 200 -40 0 -40 0 0 -65z m-20 -125 c31 -31 30 -95 -2 -122 -20 -18
-74 -24 -94 -10 -18 12 -34 49 -34 81 0 59 87 94 130 51z"/>
<path d="M2830 640 l0 -200 40 0 c34 0 40 3 40 20 0 20 0 20 29 -1 60 -44 145
-18 180 54 40 82 19 164 -51 207 -39 24 -96 26 -124 5 -31 -23 -34 -19 -34 50
l0 65 -40 0 -40 0 0 -200z m210 8 c27 -29 27 -91 0 -118 -12 -12 -33 -20 -55
-20 -48 0 -75 29 -75 79 0 31 6 44 26 60 35 27 78 27 104 -1z"/>
<path d="M3170 640 l0 -200 40 0 40 0 0 200 0 200 -40 0 -40 0 0 -200z"/>
<path d="M1282 720 c-47 -29 -72 -75 -72 -137 0 -86 64 -143 159 -143 39 0 56
6 80 26 38 31 38 38 5 52 -18 9 -31 9 -45 1 -11 -5 -37 -9 -57 -7 -31 3 -40 9
-55 39 -37 77 34 145 115 108 17 -7 32 -7 52 1 28 10 28 11 10 32 -44 49 -135
62 -192 28z"/>
<path d="M1571 718 c-47 -31 -73 -78 -73 -132 0 -60 24 -102 73 -127 115 -58
231 9 231 133 0 82 -55 138 -144 146 -44 3 -59 0 -87 -20z m119 -58 c11 -6 25
-28 31 -51 11 -35 10 -43 -8 -67 -14 -19 -31 -28 -57 -30 -45 -4 -71 16 -80
59 -13 69 54 121 114 89z"/>
<path d="M2260 733 c-31 -11 -81 -69 -91 -105 -30 -112 69 -210 189 -188 21 4
49 14 60 22 l22 15 -23 21 c-20 18 -26 19 -64 9 -48 -13 -85 -1 -103 33 -10
20 -9 20 101 20 l112 0 -6 46 c-6 55 -31 93 -78 116 -33 17 -88 22 -119 11z"/>
<path d="M2543 720 c-43 -26 -66 -73 -66 -138 0 -38 6 -61 20 -80 44 -59 127
-81 178 -48 22 14 25 15 25 1 0 -11 11 -15 40 -15 l40 0 0 150 0 150 -35 0
c-22 0 -38 -6 -41 -15 -5 -13 -9 -13 -34 0 -40 21 -89 19 -127 -5z m127 -60
c41 -22 46 -106 9 -137 -38 -31 -103 -15 -118 28 -16 48 -14 67 14 94 25 26
63 32 95 15z"/>
<path d="M3380 729 c-92 -37 -124 -153 -65 -237 38 -53 137 -71 209 -37 l37
18 -21 22 c-18 20 -25 21 -59 12 -45 -12 -95 4 -112 34 -9 18 -4 19 101 19
l110 0 0 33 c0 102 -105 173 -200 136z"/>
</g>
</svg>
